<?xml version="1.0" ?><!DOCTYPE svg  PUBLIC '-//W3C//DTD SVG 1.1//EN'  'http://www.w3.org/Graphics/SVG/1.1/DTD/svg11.dtd'><svg enable-background="new 0 0 56.7 56.7" id="Слой_1" version="1.1" viewBox="0 0 56.7 56.7" xml:space="preserve" xmlns="http://www.w3.org/2000/svg" xmlns:xlink="http://www.w3.org/1999/xlink"><path d="  M38.2,32.2L24.5,18.5c0.8-2.8,0-6-2.2-8.2c-2.6-2.6-6.5-3.2-9.7-1.7l5.7,5.7c1.1,1.1,1.1,2.9,0,4c-1.1,1.1-2.9,1.1-4,0l-5.7-5.7  c-1.5,3.2-1,7.1,1.7,9.7c2.2,2.2,5.4,2.9,8.2,2.2l13.6,13.6c-0.8,2.8,0,6,2.2,8.2C37,49,40.9,49.5,44,48l-5.7-5.7  c-1.1-1.1-1.1-2.9,0-4c1.1-1.1,2.9-1.1,4,0L48,44c1.5-3.2,1-7.1-1.7-9.7C44.2,32.1,41,31.4,38.2,32.2z" fill="none" stroke="#37404D" stroke-linecap="round" stroke-linejoin="round" stroke-miterlimit="10" stroke-width="2"/><path d="  M38.2,32.2L24.5,18.5c0.8-2.8,0-6-2.2-8.2c-2.6-2.6-6.5-3.2-9.7-1.7l5.7,5.7c1.1,1.1,1.1,2.9,0,4c-1.1,1.1-2.9,1.1-4,0l-5.7-5.7  c-1.5,3.2-1,7.1,1.7,9.7c2.2,2.2,5.4,2.9,8.2,2.2l13.6,13.6c-0.8,2.8,0,6,2.2,8.2C37,49,40.9,49.5,44,48l-5.7-5.7  c-1.1-1.1-1.1-2.9,0-4c1.1-1.1,2.9-1.1,4,0L48,44c1.5-3.2,1-7.1-1.7-9.7C44.2,32.1,41,31.4,38.2,32.2z" fill="none" stroke="#37404D" stroke-linecap="round" stroke-linejoin="round" stroke-miterlimit="10" stroke-width="2"/></svg>